<svg xmlns="http://www.w3.org/2000/svg" xmlns:xlink="http://www.w3.org/1999/xlink" viewBox="0 0 151.908 150.128">
  <defs>
    <style>
      .cls-1 {
        fill: none;
      }

      .cls-2 {
        clip-path: url(#clip-path);
      }

      .cls-3 {
        fill: #dc135f;
      }
    </style>
    <clipPath id="clip-path">
      <path id="Path_70" data-name="Path 70" class="cls-1" d="M0-296.484H151.908v150.128H0Z" transform="translate(0 296.484)"/>
    </clipPath>
  </defs>
  <g id="Group_87" data-name="Group 87" transform="translate(0 296.484)">
    <g id="Group_86" data-name="Group 86" class="cls-2" transform="translate(0 -296.484)">
      <g id="Group_80" data-name="Group 80" transform="translate(88.995 75.123)">
        <path id="Path_64" data-name="Path 64" class="cls-3" d="M-12.148-20.871c-3.6,0-6.527-2.534-6.527-5.649s2.929-5.65,6.527-5.65,6.527,2.534,6.527,5.65a2.967,2.967,0,0,0,2.967,2.967A2.967,2.967,0,0,0,.313-26.52,11.8,11.8,0,0,0-9.181-37.769v-1.543a2.967,2.967,0,0,0-2.967-2.967,2.967,2.967,0,0,0-2.967,2.967v1.543A11.8,11.8,0,0,0-24.609-26.52c0,6.387,5.59,11.583,12.461,11.583,3.6,0,6.527,2.535,6.527,5.65s-2.929,5.649-6.527,5.649-6.527-2.534-6.527-5.649a2.967,2.967,0,0,0-2.967-2.967,2.967,2.967,0,0,0-2.967,2.967A11.8,11.8,0,0,0-15.115,1.962V3.244a2.967,2.967,0,0,0,2.967,2.967A2.967,2.967,0,0,0-9.181,3.244V1.962A11.8,11.8,0,0,0,.313-9.287c0-6.387-5.59-11.584-12.461-11.584" transform="translate(24.609 42.279)"/>
      </g>
      <g id="Group_81" data-name="Group 81" transform="translate(113.908 64.616)">
        <path id="Path_65" data-name="Path 65" class="cls-3" d="M-19.54-13.91a38.654,38.654,0,0,0-15.79-13.975A2.967,2.967,0,0,0-39.29-26.5,2.966,2.966,0,0,0-37.9-22.538,32.835,32.835,0,0,1-19.386,6.9,32.7,32.7,0,0,1-23.19,22.2a2.966,2.966,0,0,0,1.226,4.013,2.948,2.948,0,0,0,1.39.348,2.966,2.966,0,0,0,2.622-1.574A38.646,38.646,0,0,0-13.452,6.9,38.441,38.441,0,0,0-19.54-13.91" transform="translate(39.584 28.179)"/>
      </g>
      <g id="Group_82" data-name="Group 82" transform="translate(102.953 61.12)">
        <path id="Path_66" data-name="Path 66" class="cls-3" d="M-3.087,0h-.2A2.967,2.967,0,0,0-6.254,2.967,2.967,2.967,0,0,0-3.287,5.934H-3.1A2.967,2.967,0,0,0-.135,2.981,2.967,2.967,0,0,0-3.087,0" transform="translate(6.254)"/>
      </g>
      <g id="Group_83" data-name="Group 83" transform="translate(62.9 80.022)">
        <path id="Path_67" data-name="Path 67" class="cls-3" d="M-23.835-47.867A32.832,32.832,0,0,1-42.35-77.3a32.7,32.7,0,0,1,3.8-15.307,2.967,2.967,0,0,0-1.226-4.013,2.966,2.966,0,0,0-4.012,1.226,38.644,38.644,0,0,0-4.5,18.093A38.443,38.443,0,0,0-42.2-56.493,38.659,38.659,0,0,0-26.406-42.518a2.949,2.949,0,0,0,1.283.294,2.967,2.967,0,0,0,2.676-1.683,2.968,2.968,0,0,0-1.388-3.96" transform="translate(48.284 96.967)"/>
      </g>
      <g id="Group_84" data-name="Group 84" transform="translate(93.867 132.326)">
        <path id="Path_68" data-name="Path 68" class="cls-3" d="M-3.073,0h-.172A2.965,2.965,0,0,0-6.226,2.952,2.969,2.969,0,0,0-3.272,5.933h.2A2.967,2.967,0,0,0-.107,2.966,2.967,2.967,0,0,0-3.073,0" transform="translate(6.226 0.001)"/>
      </g>
      <g id="Group_85" data-name="Group 85" transform="translate(0 0)">
        <path id="Path_69" data-name="Path 69" class="cls-3" d="M-98.921-140.572a44.555,44.555,0,0,1-44.5-44.5,44.555,44.555,0,0,1,44.5-44.5,44.555,44.555,0,0,1,44.5,44.5,44.555,44.555,0,0,1-44.5,44.5m-71.8-16.022a7.722,7.722,0,0,1-7.714-7.714,7.722,7.722,0,0,1,7.714-7.714h23.079a50.227,50.227,0,0,0,7.118,15.428Zm0-36.79h22.05a50.547,50.547,0,0,0-.688,8.307,50.666,50.666,0,0,0,.5,7.121h-21.867a7.722,7.722,0,0,1-7.714-7.714,7.722,7.722,0,0,1,7.714-7.714m0-21.362h31.039a50.3,50.3,0,0,0-7.626,15.428h-23.413a7.722,7.722,0,0,1-7.714-7.714,7.723,7.723,0,0,1,7.714-7.714m0-21.362h72.691a7.708,7.708,0,0,1,3.365.775c-1.4-.117-2.821-.181-4.255-.181a50.28,50.28,0,0,0-35.692,14.835h-36.109a7.723,7.723,0,0,1-7.714-7.714,7.723,7.723,0,0,1,7.714-7.714m-16.021-27.3a7.723,7.723,0,0,1-7.714-7.714,7.723,7.723,0,0,1,7.714-7.714h72.69a7.723,7.723,0,0,1,7.714,7.714,7.723,7.723,0,0,1-7.714,7.714Zm107.7,5.934a7.723,7.723,0,0,1,7.714,7.714,7.723,7.723,0,0,1-7.714,7.714h-72.691a7.722,7.722,0,0,1-7.714-7.714,7.722,7.722,0,0,1,7.714-7.714Zm-6.406,23.785a13.568,13.568,0,0,0-1.318-2.423h7.725a13.664,13.664,0,0,0,13.648-13.648A13.664,13.664,0,0,0-79.042-263.4H-102.8a13.574,13.574,0,0,0,2.4-7.714,13.664,13.664,0,0,0-13.648-13.648h-72.69a13.664,13.664,0,0,0-13.648,13.648,13.664,13.664,0,0,0,13.648,13.648h23.759a13.568,13.568,0,0,0-2.4,7.714,13.564,13.564,0,0,0,2.4,7.714h-7.738a13.664,13.664,0,0,0-13.648,13.648,13.626,13.626,0,0,0,5.167,10.681,13.627,13.627,0,0,0-5.167,10.681A13.628,13.628,0,0,0-179.2-196.35a13.626,13.626,0,0,0-5.167,10.681,13.627,13.627,0,0,0,5.167,10.681,13.627,13.627,0,0,0-5.167,10.681,13.664,13.664,0,0,0,13.648,13.648h34.966a50.3,50.3,0,0,0,36.835,16.022,50.5,50.5,0,0,0,50.438-50.439,50.527,50.527,0,0,0-36.966-48.608" transform="translate(200.391 284.766)"/>
      </g>
    </g>
  </g>
</svg>
