<svg xmlns="http://www.w3.org/2000/svg" xmlns:xlink="http://www.w3.org/1999/xlink" viewBox="0 0 152.085 152.085">
  <defs>
    <style>
      .cls-1 {
        fill: none;
      }

      .cls-2 {
        clip-path: url(#clip-path);
      }

      .cls-3 {
        fill: #dc135f;
      }
    </style>
    <clipPath id="clip-path">
      <path id="Path_63" data-name="Path 63" class="cls-1" d="M0-480H152.085v152.085H0Z" transform="translate(0 480)"/>
    </clipPath>
  </defs>
  <g id="Group_79" data-name="Group 79" transform="translate(0 480)">
    <g id="Group_78" data-name="Group 78" class="cls-2" transform="translate(0 -480)">
      <g id="Group_47" data-name="Group 47" transform="translate(0 65.904)">
        <path id="Path_32" data-name="Path 32" class="cls-3" d="M-60.118-10.93A22.838,22.838,0,0,1-37.3,11.882c0,9.835-14.983,31.339-22.813,41.516C-67.947,43.225-82.93,21.722-82.93,11.882A22.838,22.838,0,0,1-60.118-10.93m0,70.973a2.532,2.532,0,0,0,1.976-.951c1.066-1.318,25.906-32.488,25.906-47.21A27.882,27.882,0,0,0-60.118-16,27.882,27.882,0,0,0-88,11.882c0,14.722,24.84,45.879,25.906,47.21a2.532,2.532,0,0,0,1.976.951" transform="translate(88 16)"/>
      </g>
      <g id="Group_48" data-name="Group 48" transform="translate(17.743 81.112)">
        <path id="Path_33" data-name="Path 33" class="cls-3" d="M-10.93-21.861a5.07,5.07,0,0,1,5.07-5.07,5.07,5.07,0,0,1,5.07,5.07,5.07,5.07,0,0,1-5.07,5.07,5.07,5.07,0,0,1-5.07-5.07m15.209,0A10.139,10.139,0,0,0-5.861-32,10.139,10.139,0,0,0-16-21.861,10.139,10.139,0,0,0-5.861-11.722,10.139,10.139,0,0,0,4.278-21.861" transform="translate(16 32)"/>
      </g>
      <g id="Group_49" data-name="Group 49" transform="translate(111.529)">
        <path id="Path_34" data-name="Path 34" class="cls-3" d="M-43.722-10.93A15.223,15.223,0,0,1-28.513,4.278c0,6.423-9.677,19.659-15.209,26.46-5.534-6.8-15.209-20.024-15.209-26.46A15.223,15.223,0,0,1-43.722-10.93m0,48.16a2.53,2.53,0,0,0,1.921-.882c1.881-2.182,18.357-21.631,18.357-32.069A20.277,20.277,0,0,0-43.722-16,20.277,20.277,0,0,0-64,4.278c0,10.438,16.476,29.887,18.357,32.069a2.53,2.53,0,0,0,1.921.882" transform="translate(64 16)"/>
      </g>
      <g id="Group_50" data-name="Group 50" transform="translate(124.203 10.139)">
        <path id="Path_35" data-name="Path 35" class="cls-3" d="M-10.93-16.4A2.535,2.535,0,0,1-8.4-18.93,2.535,2.535,0,0,1-5.861-16.4,2.535,2.535,0,0,1-8.4-13.861,2.535,2.535,0,0,1-10.93-16.4m10.139,0A7.6,7.6,0,0,0-8.4-24,7.6,7.6,0,0,0-16-16.4a7.6,7.6,0,0,0,7.6,7.6,7.6,7.6,0,0,0,7.6-7.6" transform="translate(16 24)"/>
      </g>
      <g id="Group_51" data-name="Group 51" transform="translate(126.738 58.299)">
        <path id="Path_36" data-name="Path 36" class="cls-3" d="M-5.465-10.93H-2.93A2.535,2.535,0,0,0-.4-13.465,2.535,2.535,0,0,0-2.93-16H-5.465A2.535,2.535,0,0,0-8-13.465,2.535,2.535,0,0,0-5.465-10.93" transform="translate(8 16)"/>
      </g>
      <g id="Group_52" data-name="Group 52" transform="translate(93.766 73.508)">
        <path id="Path_37" data-name="Path 37" class="cls-3" d="M-5.508-10.93H-.383a2.535,2.535,0,0,0,2.535-2.535A2.535,2.535,0,0,0-.383-16H-5.549a2.521,2.521,0,0,0-1.784.745,2.518,2.518,0,0,0-.73,1.79A2.552,2.552,0,0,0-5.508-10.93" transform="translate(8.063 16)"/>
      </g>
      <g id="Group_53" data-name="Group 53" transform="translate(124.738 73.508)">
        <path id="Path_38" data-name="Path 38" class="cls-3" d="M0-5.465A2.535,2.535,0,0,0,2.535-2.93H7.7a2.535,2.535,0,0,0,2.535-2.535A2.535,2.535,0,0,0,7.7-8H2.535A2.535,2.535,0,0,0,0-5.465" transform="translate(0 8)"/>
      </g>
      <g id="Group_54" data-name="Group 54" transform="translate(111.243 58.299)">
        <path id="Path_39" data-name="Path 39" class="cls-3" d="M-5.465-10.93H-.3a2.535,2.535,0,0,0,2.535-2.535A2.535,2.535,0,0,0-.3-16H-5.465A2.534,2.534,0,0,0-8-13.465,2.534,2.534,0,0,0-5.465-10.93" transform="translate(8 16)"/>
      </g>
      <g id="Group_55" data-name="Group 55" transform="translate(38.469 147.016)">
        <path id="Path_40" data-name="Path 40" class="cls-3" d="M-16.6,0H-21.77a2.535,2.535,0,0,0-2.535,2.535A2.535,2.535,0,0,0-21.77,5.07H-16.6a2.535,2.535,0,0,0,2.535-2.535A2.535,2.535,0,0,0-16.6,0" transform="translate(24.305)"/>
      </g>
      <g id="Group_56" data-name="Group 56" transform="translate(86.181 62.446)">
        <path id="Path_41" data-name="Path 41" class="cls-3" d="M-5.81-21.774a2.488,2.488,0,0,0,.525-.056,2.535,2.535,0,0,0,1.959-3,5.259,5.259,0,0,1-.109-1.052,5.07,5.07,0,0,1,.552-2.307A2.534,2.534,0,0,0-3.993-31.6,2.534,2.534,0,0,0-7.4-30.485a10.138,10.138,0,0,0-.885,6.692,2.536,2.536,0,0,0,2.476,2.02" transform="translate(8.505 31.872)"/>
      </g>
      <g id="Group_57" data-name="Group 57" transform="translate(109.248 73.508)">
        <path id="Path_42" data-name="Path 42" class="cls-3" d="M-5.465-10.93H-.3a2.535,2.535,0,0,0,2.535-2.535A2.535,2.535,0,0,0-.3-16H-5.465A2.535,2.535,0,0,0-8-13.465,2.535,2.535,0,0,0-5.465-10.93" transform="translate(8 16)"/>
      </g>
      <g id="Group_58" data-name="Group 58" transform="translate(95.748 58.299)">
        <path id="Path_43" data-name="Path 43" class="cls-3" d="M-5.465-10.93H-.3a2.535,2.535,0,0,0,2.535-2.535A2.535,2.535,0,0,0-.3-16H-5.465A2.535,2.535,0,0,0-8-13.465,2.535,2.535,0,0,0-5.465-10.93" transform="translate(8 16)"/>
      </g>
      <g id="Group_59" data-name="Group 59" transform="translate(71.312 97.81)">
        <path id="Path_44" data-name="Path 44" class="cls-3" d="M-4.144-20.709a2.458,2.458,0,0,0,.615.077,2.536,2.536,0,0,0,2.457-1.922A8.945,8.945,0,0,1,.734-26.1a2.534,2.534,0,0,0,.488-2.522A2.534,2.534,0,0,0-.746-30.279a2.536,2.536,0,0,0-2.4.916A13.961,13.961,0,0,0-5.99-23.786a2.529,2.529,0,0,0,.285,1.921,2.526,2.526,0,0,0,1.561,1.156" transform="translate(6.066 30.314)"/>
      </g>
      <g id="Group_60" data-name="Group 60" transform="translate(115.943 146.888)">
        <path id="Path_45" data-name="Path 45" class="cls-3" d="M-15.886-.046a12.323,12.323,0,0,1-1.643.106h-3.191A2.534,2.534,0,0,0-23.254,2.6,2.534,2.534,0,0,0-20.719,5.13h3.191a17.774,17.774,0,0,0,2.281-.147,2.537,2.537,0,0,0,2.191-2.839A2.535,2.535,0,0,0-15.9-.046Z" transform="translate(23.254 0.067)"/>
      </g>
      <g id="Group_61" data-name="Group 61" transform="translate(118.469 116.599)">
        <path id="Path_46" data-name="Path 46" class="cls-3" d="M-18.053-1.638a17.728,17.728,0,0,0-5.173-.76h-.665A2.535,2.535,0,0,0-26.426.137a2.535,2.535,0,0,0,2.535,2.535h.665a12.785,12.785,0,0,1,3.7.547,2.478,2.478,0,0,0,.738.112,2.536,2.536,0,0,0,2.51-2.161,2.534,2.534,0,0,0-1.772-2.8Z" transform="translate(26.426 2.398)"/>
      </g>
      <g id="Group_62" data-name="Group 62" transform="translate(113.737 93.786)">
        <path id="Path_47" data-name="Path 47" class="cls-3" d="M-16.6-10.93a2.535,2.535,0,0,0,2.535-2.535A2.535,2.535,0,0,0-16.6-16h-5.164A2.535,2.535,0,0,0-24.3-13.465a2.535,2.535,0,0,0,2.535,2.535Z" transform="translate(24.297 16)"/>
      </g>
      <g id="Group_63" data-name="Group 63" transform="translate(130.093 138.044)">
        <path id="Path_48" data-name="Path 48" class="cls-3" d="M-13.991-.483A2.534,2.534,0,0,0-17.342.784a12.648,12.648,0,0,1-2.4,3.55,2.532,2.532,0,0,0-.647,2.484,2.534,2.534,0,0,0,1.855,1.775,2.536,2.536,0,0,0,2.454-.756,17.672,17.672,0,0,0,3.357-4.971A2.536,2.536,0,0,0-13.991-.483" transform="translate(20.48 0.707)"/>
      </g>
      <g id="Group_64" data-name="Group 64" transform="translate(143.965 86.523)">
        <path id="Path_49" data-name="Path 49" class="cls-3" d="M-12.705-.224a2.535,2.535,0,0,0-1.931.2,2.539,2.539,0,0,0-1.22,1.51,7.692,7.692,0,0,1-1.979,3.28,2.535,2.535,0,0,0-.038,3.587,2.537,2.537,0,0,0,3.587.038,12.736,12.736,0,0,0,3.295-5.468A2.535,2.535,0,0,0-11.195,1a2.542,2.542,0,0,0-1.51-1.22" transform="translate(18.598 0.329)"/>
      </g>
      <g id="Group_65" data-name="Group 65" transform="translate(140.17 74.054)">
        <path id="Path_50" data-name="Path 50" class="cls-3" d="M-14.65-17.022a2.535,2.535,0,0,0,2.317-1.5,2.537,2.537,0,0,0-.428-2.727,12.751,12.751,0,0,0-5.323-3.528A2.535,2.535,0,0,0-21.306-23.2a2.535,2.535,0,0,0,1.574,3.222,7.6,7.6,0,0,1,3.193,2.119,2.54,2.54,0,0,0,1.889.842" transform="translate(21.445 24.917)"/>
      </g>
      <g id="Group_66" data-name="Group 66" transform="translate(102.977 116.599)">
        <path id="Path_51" data-name="Path 51" class="cls-3" d="M-16.6,0h-5.164A2.535,2.535,0,0,0-24.3,2.535,2.535,2.535,0,0,0-21.762,5.07H-16.6a2.535,2.535,0,0,0,2.535-2.535A2.535,2.535,0,0,0-16.6,0" transform="translate(24.297)"/>
      </g>
      <g id="Group_67" data-name="Group 67" transform="translate(129.229 93.786)">
        <path id="Path_52" data-name="Path 52" class="cls-3" d="M-16.6,0H-21.77a2.535,2.535,0,0,0-2.535,2.535A2.535,2.535,0,0,0-21.77,5.07H-16.6a2.535,2.535,0,0,0,2.535-2.535A2.535,2.535,0,0,0-16.6,0" transform="translate(24.305)"/>
      </g>
      <g id="Group_68" data-name="Group 68" transform="translate(53.965 147.016)">
        <path id="Path_53" data-name="Path 53" class="cls-3" d="M-16.6,0h-5.164A2.535,2.535,0,0,0-24.3,2.535,2.535,2.535,0,0,0-21.762,5.07H-16.6a2.535,2.535,0,0,0,2.535-2.535A2.535,2.535,0,0,0-16.6,0" transform="translate(24.297)"/>
      </g>
      <g id="Group_69" data-name="Group 69" transform="translate(131.717 123.274)">
        <path id="Path_54" data-name="Path 54" class="cls-3" d="M-9.993-2.385a2.539,2.539,0,0,0-3.529-.663A2.539,2.539,0,0,0-14.185.48a12.535,12.535,0,0,1,1.773,3.89,2.535,2.535,0,0,0,1.769,1.894,2.533,2.533,0,0,0,2.508-.649A2.535,2.535,0,0,0-7.507,3.1,17.607,17.607,0,0,0-9.993-2.385" transform="translate(14.628 3.491)"/>
      </g>
      <g id="Group_70" data-name="Group 70" transform="translate(73.368 112.186)">
        <path id="Path_55" data-name="Path 55" class="cls-3" d="M-16.436-7.552a9.014,9.014,0,0,1-3.085-2.522,2.534,2.534,0,0,0-3.557-.447,2.535,2.535,0,0,0-.448,3.557A14.067,14.067,0,0,0-18.68-3.007a2.536,2.536,0,0,0,3.346-1.176,2.535,2.535,0,0,0-1.1-3.369" transform="translate(24.059 11.055)"/>
      </g>
      <g id="Group_71" data-name="Group 71" transform="translate(69.452 147.016)">
        <path id="Path_56" data-name="Path 56" class="cls-3" d="M-16.614,0h-5.171A2.535,2.535,0,0,0-24.32,2.535,2.535,2.535,0,0,0-21.785,5.07h5.171A2.535,2.535,0,0,0-14.08,2.535,2.535,2.535,0,0,0-16.614,0" transform="translate(24.32)"/>
      </g>
      <g id="Group_72" data-name="Group 72" transform="translate(100.449 147.016)">
        <path id="Path_57" data-name="Path 57" class="cls-3" d="M-16.6,0h-5.164A2.535,2.535,0,0,0-24.3,2.535,2.535,2.535,0,0,0-21.762,5.07H-16.6a2.535,2.535,0,0,0,2.535-2.535A2.535,2.535,0,0,0-16.6,0" transform="translate(24.297)"/>
      </g>
      <g id="Group_73" data-name="Group 73" transform="translate(82.749 93.786)">
        <path id="Path_58" data-name="Path 58" class="cls-3" d="M-16.6-10.93a2.535,2.535,0,0,0,2.535-2.535A2.535,2.535,0,0,0-16.6-16h-5.164A2.535,2.535,0,0,0-24.3-13.465a2.535,2.535,0,0,0,2.535,2.535Z" transform="translate(24.297 16)"/>
      </g>
      <g id="Group_74" data-name="Group 74" transform="translate(98.241 93.786)">
        <path id="Path_59" data-name="Path 59" class="cls-3" d="M-16.625-10.93a2.535,2.535,0,0,0,2.535-2.535A2.535,2.535,0,0,0-16.625-16H-21.8a2.535,2.535,0,0,0-2.535,2.535A2.535,2.535,0,0,0-21.8-10.93Z" transform="translate(24.336 16)"/>
      </g>
      <g id="Group_75" data-name="Group 75" transform="translate(87.482 116.599)">
        <path id="Path_60" data-name="Path 60" class="cls-3" d="M-16.6,0h-5.165A2.535,2.535,0,0,0-24.3,2.535,2.535,2.535,0,0,0-21.766,5.07H-16.6a2.534,2.534,0,0,0,2.535-2.535A2.534,2.534,0,0,0-16.6,0" transform="translate(24.301)"/>
      </g>
      <g id="Group_76" data-name="Group 76" transform="translate(84.955 147.016)">
        <path id="Path_61" data-name="Path 61" class="cls-3" d="M-16.6,0H-21.77a2.535,2.535,0,0,0-2.535,2.535A2.535,2.535,0,0,0-21.77,5.07H-16.6a2.535,2.535,0,0,0,2.535-2.535A2.535,2.535,0,0,0-16.6,0" transform="translate(24.305)"/>
      </g>
      <g id="Group_77" data-name="Group 77" transform="translate(25.348 147.016)">
        <path id="Path_62" data-name="Path 62" class="cls-3" d="M-10.93,0h-2.535A2.535,2.535,0,0,0-16,2.535,2.535,2.535,0,0,0-13.465,5.07h2.535A2.535,2.535,0,0,0-8.4,2.535,2.535,2.535,0,0,0-10.93,0" transform="translate(16)"/>
      </g>
    </g>
  </g>
</svg>
