<svg xmlns="http://www.w3.org/2000/svg" xmlns:xlink="http://www.w3.org/1999/xlink" viewBox="0 0 22.021 39.156">
  <defs>
    <style>
      .cls-1 {
        fill: none;
      }

      .cls-2 {
        clip-path: url(#clip-path);
      }

      .cls-3 {
        fill: #dc135f;
      }
    </style>
    <clipPath id="clip-path">
      <path id="Path_23" data-name="Path 23" class="cls-1" d="M0-300H22.021v39.156H0Z" transform="translate(0 300)"/>
    </clipPath>
  </defs>
  <g id="Group_31" data-name="Group 31" transform="translate(0 300)">
    <g id="Group_22" data-name="Group 22" class="cls-2" transform="translate(0 -300)">
      <g id="Group_21" data-name="Group 21" transform="translate(0 0)">
        <path id="Path_22" data-name="Path 22" class="cls-3" d="M-106.56-118.908l-8.259-2.417a2.262,2.262,0,0,1-1.621-2.164,2.255,2.255,0,0,1,2.256-2.256h5.07a4.669,4.669,0,0,1,2.616.8,1.192,1.192,0,0,0,1.491-.153l2.661-2.6a1.24,1.24,0,0,0-.138-1.874,10.813,10.813,0,0,0-6.615-2.294v-3.671a1.227,1.227,0,0,0-1.224-1.224h-2.447a1.227,1.227,0,0,0-1.224,1.224v3.671h-.191a8.379,8.379,0,0,0-8.336,9.147,8.755,8.755,0,0,0,6.409,7.388l7.839,2.294a2.269,2.269,0,0,1,1.621,2.164,2.255,2.255,0,0,1-2.256,2.256h-5.07a4.668,4.668,0,0,1-2.616-.8,1.192,1.192,0,0,0-1.491.153l-2.661,2.6a1.24,1.24,0,0,0,.138,1.874,10.814,10.814,0,0,0,6.615,2.294v3.671A1.227,1.227,0,0,0-112.77-97.6h2.447a1.227,1.227,0,0,0,1.224-1.224v-3.686a8.638,8.638,0,0,0,8.084-5.56,8.4,8.4,0,0,0-5.545-10.837" transform="translate(122.557 136.758)"/>
      </g>
    </g>
  </g>
</svg>
