<svg xmlns="http://www.w3.org/2000/svg" xmlns:xlink="http://www.w3.org/1999/xlink" viewBox="0 0 41.655 29.159">
  <defs>
    <style>
      .cls-1 {
        fill: #dc135f;
      }

      .cls-2 {
        clip-path: url(#clip-path);
      }
    </style>
    <clipPath id="clip-path">
      <path id="Path_27" data-name="Path 27" class="cls-1" d="M0-210H41.655v29.159H0Z" transform="translate(0 210)"/>
    </clipPath>
  </defs>
  <g id="Group_40" data-name="Group 40" transform="translate(-4.042 189.271)">
    <g id="Group_39" data-name="Group 39" class="cls-2" transform="translate(4.042 -189.271)">
      <g id="Group_38" data-name="Group 38" transform="translate(0 0)">
        <path id="Path_26" data-name="Path 26" class="cls-1" d="M-69.874-97.929A4.153,4.153,0,0,0-72.81-99.14h-4.166a4.169,4.169,0,0,0-4.166,4.166v2.083a2.081,2.081,0,0,0,2.083,2.083h4.289a9.544,9.544,0,0,1,4.894-7.12m14.56.872h-.54a10.252,10.252,0,0,1-4.458,1.041,10.273,10.273,0,0,1-4.458-1.041h-.54a7.5,7.5,0,0,0-7.5,7.5v1.874a3.125,3.125,0,0,0,3.124,3.124h18.745a3.125,3.125,0,0,0,3.124-3.124v-1.874a7.5,7.5,0,0,0-7.5-7.5m-5-2.083a7.286,7.286,0,0,0,7.29-7.29,7.286,7.286,0,0,0-7.29-7.29,7.286,7.286,0,0,0-7.29,7.29,7.286,7.286,0,0,0,7.29,7.29m16.662,0h-4.166a4.153,4.153,0,0,0-2.935,1.211,9.52,9.52,0,0,1,4.888,7.12h4.3a2.081,2.081,0,0,0,2.083-2.083v-2.083a4.169,4.169,0,0,0-4.166-4.166m-2.083-2.083a4.169,4.169,0,0,0,4.166-4.166,4.169,4.169,0,0,0-4.166-4.166,4.169,4.169,0,0,0-4.166,4.166,4.169,4.169,0,0,0,4.166,4.166m-29.159,0a4.169,4.169,0,0,0,4.166-4.166,4.169,4.169,0,0,0-4.166-4.166,4.169,4.169,0,0,0-4.166,4.166,4.169,4.169,0,0,0,4.166,4.166" transform="translate(81.141 113.719)"/>
      </g>
    </g>
  </g>
</svg>
