<svg xmlns="http://www.w3.org/2000/svg" xmlns:xlink="http://www.w3.org/1999/xlink" viewBox="0 0 26.25 30">
  <defs>
    <style>
      .cls-1 {
        fill: none;
      }

      .cls-2 {
        clip-path: url(#clip-path);
      }

      .cls-3 {
        fill: #dc135f;
      }
    </style>
    <clipPath id="clip-path">
      <path id="Path_21" data-name="Path 21" class="cls-1" d="M0-300H26.25v30H0Z" transform="translate(0 300)"/>
    </clipPath>
  </defs>
  <g id="Group_30" data-name="Group 30" transform="translate(0 300)">
    <g id="Group_19" data-name="Group 19" class="cls-2" transform="translate(0 -300)">
      <g id="Group_18" data-name="Group 18">
        <path id="Path_20" data-name="Path 20" class="cls-3" d="M-210.937-33.75h-2.812v-2.812a.94.94,0,0,0-.937-.937h-1.875a.94.94,0,0,0-.937.938v2.813H-225v-2.812a.94.94,0,0,0-.937-.937h-1.875a.94.94,0,0,0-.937.938v2.813h-2.812a2.813,2.813,0,0,0-2.812,2.813v2.813h26.25v-2.812a2.813,2.813,0,0,0-2.812-2.812M-230.625-14.3a.705.705,0,0,1,.7-.7h2.344a.705.705,0,0,1,.7.7v2.344a.705.705,0,0,1-.7.7h-2.344a.705.705,0,0,1-.7-.7Zm0-7.5a.705.705,0,0,1,.7-.7h2.344a.705.705,0,0,1,.7.7v2.344a.705.705,0,0,1-.7.7h-2.344a.705.705,0,0,1-.7-.7Zm7.5,7.5a.705.705,0,0,1,.7-.7h2.344a.705.705,0,0,1,.7.7v2.344a.705.705,0,0,1-.7.7h-2.344a.705.705,0,0,1-.7-.7Zm0-7.5a.705.705,0,0,1,.7-.7h2.344a.705.705,0,0,1,.7.7v2.344a.705.705,0,0,1-.7.7h-2.344a.705.705,0,0,1-.7-.7Zm7.5,7.5a.705.705,0,0,1,.7-.7h2.344a.705.705,0,0,1,.7.7v2.344a.705.705,0,0,1-.7.7h-2.344a.705.705,0,0,1-.7-.7Zm0-7.5a.705.705,0,0,1,.7-.7h2.344a.705.705,0,0,1,.7.7v2.344a.705.705,0,0,1-.7.7h-2.344a.705.705,0,0,1-.7-.7Zm-18.75,11.484A2.813,2.813,0,0,0-231.562-7.5h20.625a2.813,2.813,0,0,0,2.813-2.812V-26.25h-26.25Z" transform="translate(234.375 37.5)"/>
      </g>
    </g>
  </g>
</svg>
