<svg xmlns="http://www.w3.org/2000/svg" xmlns:xlink="http://www.w3.org/1999/xlink" viewBox="0 0 120.996 142.089">
  <defs>
    <style>
      .cls-1 {
        fill: none;
      }

      .cls-2 {
        clip-path: url(#clip-path);
      }

      .cls-3 {
        fill: #dc135f;
      }
    </style>
    <clipPath id="clip-path">
      <path id="Path_31" data-name="Path 31" class="cls-1" d="M0-512H121v142.089H0Z" transform="translate(0 512.001)"/>
    </clipPath>
  </defs>
  <g id="Group_46" data-name="Group 46" transform="translate(0 512.001)">
    <g id="Group_45" data-name="Group 45" class="cls-2" transform="translate(0 -512.001)">
      <g id="Group_42" data-name="Group 42" transform="translate(0 0)">
        <path id="Path_28" data-name="Path 28" class="cls-3" d="M-277.993-239.521c-7.315,19.834-22.248,33.455-45.651,41.639a2.16,2.16,0,0,1-.265.072,1.871,1.871,0,0,1-.733,0,2.125,2.125,0,0,1-.263-.07c-23.428-8.17-38.371-21.783-45.681-41.618-6.393-17.346-6.03-36.377-5.711-53.167l0-.093c.065-1.443.108-2.954.132-4.615a6.693,6.693,0,0,1,6.308-6.551,73.154,73.154,0,0,0,24.829-5.462,64.962,64.962,0,0,0,20.234-13.594.769.769,0,0,1,1.032,0,64.983,64.983,0,0,0,20.234,13.594,73.159,73.159,0,0,0,24.83,5.462,6.691,6.691,0,0,1,6.307,6.552c.025,1.67.068,3.181.133,4.614.319,16.809.672,35.856-5.739,53.239m14.074-53.451,0-.111c-.062-1.365-.1-2.809-.128-4.415a15.059,15.059,0,0,0-14.179-14.753c-16.337-.912-28.975-6.239-39.773-16.764l-.092-.088a9.093,9.093,0,0,0-12.358,0l-.092.088c-10.8,10.525-23.436,15.852-39.773,16.765A15.058,15.058,0,0,0-384.5-297.5c-.024,1.6-.066,3.04-.128,4.414l-.006.257c-.318,16.658-.712,37.391,6.224,56.209a71.551,71.551,0,0,0,17.166,26.738c8.629,8.421,19.931,15.106,33.593,19.869a10.377,10.377,0,0,0,1.377.375,10.223,10.223,0,0,0,2,.2,10.217,10.217,0,0,0,2-.2,10.4,10.4,0,0,0,1.382-.377c13.645-4.772,24.935-11.461,33.557-19.88a71.656,71.656,0,0,0,17.166-26.745c6.962-18.874,6.568-39.646,6.252-56.336" transform="translate(384.774 331.525)"/>
      </g>
      <g id="Group_43" data-name="Group 43" transform="translate(25.087 35.636)">
        <path id="Path_29" data-name="Path 29" class="cls-3" d="M-92.187-162.669a27.1,27.1,0,0,1-27.073-27.073,27.1,27.1,0,0,1,27.073-27.073,27.1,27.1,0,0,1,27.072,27.073,27.1,27.1,0,0,1-27.072,27.073m0-62.483a35.451,35.451,0,0,0-35.411,35.41A35.451,35.451,0,0,0-92.187-154.33a35.452,35.452,0,0,0,35.411-35.412,35.451,35.451,0,0,0-35.411-35.41" transform="translate(127.598 225.152)"/>
      </g>
      <g id="Group_44" data-name="Group 44" transform="translate(42.647 58.831)">
        <path id="Path_30" data-name="Path 30" class="cls-3" d="M-72.967-3.181-89.415,13.266-93.879,8.8a4.169,4.169,0,0,0-5.9,0,4.17,4.17,0,0,0,0,5.9l7.413,7.413a4.156,4.156,0,0,0,2.948,1.221,4.155,4.155,0,0,0,2.948-1.221l19.4-19.4a4.17,4.17,0,0,0,0-5.9,4.167,4.167,0,0,0-5.9,0" transform="translate(100.995 4.403)"/>
      </g>
    </g>
  </g>
</svg>
