<svg xmlns="http://www.w3.org/2000/svg" xmlns:xlink="http://www.w3.org/1999/xlink" viewBox="0 0 266.178 117.589">
  <defs>
    <style>
      .cls-1 {
        fill: none;
      }

      .cls-2 {
        fill: #fff;
      }

      .cls-3 {
        clip-path: url(#clip-path);
      }
    </style>
    <clipPath id="clip-path">
      <path id="Path_18" data-name="Path 18" class="cls-1" d="M0-117.589H266.178V0H0Z"/>
    </clipPath>
  </defs>
  <g id="Group_17" data-name="Group 17" transform="translate(0 117.589)">
    <g id="Group_1" data-name="Group 1" transform="translate(6.574 -117.1)">
      <path id="Path_1" data-name="Path 1" class="cls-2" d="M0,0-6.574,38.8H-.49L.935,29.887H7.041L8.422,38.8h6.127L8.061,0ZM4,8.891l2.169,15.3H1.829Z"/>
    </g>
    <g id="Group_16" data-name="Group 16" class="cls-3">
      <g id="Group_2" data-name="Group 2" transform="translate(34.438 -77.811)">
        <path id="Path_2" data-name="Path 2" class="cls-2" d="M0,0A8.912,8.912,0,0,1-6.572-2.723a8.944,8.944,0,0,1-2.7-6.531V-30.5a8.921,8.921,0,0,1,2.723-6.562A8.946,8.946,0,0,1,0-39.779a8.875,8.875,0,0,1,6.562,2.723A8.987,8.987,0,0,1,9.254-30.5v4.424H3.191v-4.531A3.264,3.264,0,0,0,2.2-33a3.26,3.26,0,0,0-2.393-.989A3.2,3.2,0,0,0-2.552-33a3.281,3.281,0,0,0-.978,2.393V-9.317a3.242,3.242,0,0,0,.978,2.382,3.22,3.22,0,0,0,2.361.978A3.278,3.278,0,0,0,2.2-6.935a3.225,3.225,0,0,0,.989-2.382v-7.637H-.063V-22.8H9.254v13.55A8.877,8.877,0,0,1,6.531-2.691,8.956,8.956,0,0,1,0,0"/>
      </g>
      <g id="Group_3" data-name="Group 3" transform="translate(48.755 -78.301)">
        <path id="Path_3" data-name="Path 3" class="cls-2" d="M0,0V-38.8H16.656v5.849H5.85v10.637h7.892v5.849H5.85V-5.849H16.656V0Z"/>
      </g>
      <g id="Group_4" data-name="Group 4" transform="translate(76.004 -117.1)">
        <path id="Path_4" data-name="Path 4" class="cls-2" d="M0,0,7.743,26.058V0h5.85V38.8H7.327L-.723,13.955V38.8H-6.572V0Z"/>
      </g>
      <g id="Group_5" data-name="Group 5" transform="translate(103.998 -77.811)">
        <path id="Path_5" data-name="Path 5" class="cls-2" d="M0,0A8.943,8.943,0,0,1-6.573-2.7a8.92,8.92,0,0,1-2.7-6.552V-30.5a8.92,8.92,0,0,1,2.722-6.562A8.948,8.948,0,0,1,0-39.779a8.875,8.875,0,0,1,6.562,2.723A8.986,8.986,0,0,1,9.253-30.5v4.424H3.19v-4.531A3.26,3.26,0,0,0,2.2-33a3.26,3.26,0,0,0-2.392-.989A3.2,3.2,0,0,0-2.553-33a3.281,3.281,0,0,0-.978,2.393V-9.317a3.242,3.242,0,0,0,.978,2.382,3.221,3.221,0,0,0,2.362.978A3.277,3.277,0,0,0,2.2-6.935,3.221,3.221,0,0,0,3.19-9.317v-5.34H9.253v5.4A8.873,8.873,0,0,1,6.53-2.691,8.955,8.955,0,0,1,0,0"/>
      </g>
      <path id="Path_6" data-name="Path 6" class="cls-2" d="M123.888-78.3h-5.851v-38.8h5.851Z"/>
      <g id="Group_6" data-name="Group 6" transform="translate(139.352 -108.209)">
        <path id="Path_7" data-name="Path 7" class="cls-2" d="M0,0-2.169,15.294H2.17ZM-3.063,21l-1.425,8.912h-6.083L-4-8.892H4.063l6.488,38.8H4.425L3.042,21Z"/>
      </g>
      <g id="Group_7" data-name="Group 7" transform="translate(163.814 -84.086)">
        <path id="Path_8" data-name="Path 8" class="cls-2" d="M0,0H3.521A3.108,3.108,0,0,0,5.874-1.011a3.341,3.341,0,0,0,.954-2.371V-23.676a3.26,3.26,0,0,0-.975-2.372,3.164,3.164,0,0,0-2.332-.989H0ZM12.529-3.489a8.966,8.966,0,0,1-2.7,6.552A8.811,8.811,0,0,1,3.34,5.785H-5.85v-38.8H3.34a8.794,8.794,0,0,1,6.509,2.722,8.981,8.981,0,0,1,2.68,6.531Z"/>
      </g>
      <g id="Group_8" data-name="Group 8" transform="translate(181.471 -78.301)">
        <path id="Path_9" data-name="Path 9" class="cls-2" d="M0,0V-38.8H16.655v5.849H5.85v10.637h7.891v5.849H5.85V-5.849H16.655V0Z"/>
      </g>
      <g id="Group_9" data-name="Group 9" transform="translate(12.021 -5.381)">
        <path id="Path_10" data-name="Path 10" class="cls-2" d="M0,0-10.674-59.9h9.459L6.272-13.268,13.859-59.9h9.46L12.447,0Z"/>
      </g>
      <path id="Path_11" data-name="Path 11" class="cls-2" d="M51.957-5.381H42.925v-59.9h9.032Z"/>
      <g id="Group_10" data-name="Group 10" transform="translate(75.834 -51.557)">
        <path id="Path_12" data-name="Path 12" class="cls-2" d="M0,0-3.35,23.612h6.7ZM-4.73,32.416l-2.2,13.76h-9.391l10.147-59.9H6.273l10.017,59.9H6.831L4.7,32.416Z"/>
      </g>
      <g id="Group_11" data-name="Group 11" transform="translate(118.233 -18.847)">
        <path id="Path_13" data-name="Path 13" class="cls-2" d="M0,0A13.63,13.63,0,0,1-4.187,10.1a13.874,13.874,0,0,1-10.1,4.121,17.08,17.08,0,0,1-5.583-.756l1.281-8.408a12.549,12.549,0,0,0,2.629.33,11.565,11.565,0,0,0,1.9-.034,5.879,5.879,0,0,0,3.713-1.592A4.7,4.7,0,0,0-8.834.2V-46.438H0Z"/>
      </g>
      <g id="Group_12" data-name="Group 12" transform="translate(126.248 -5.381)">
        <path id="Path_14" data-name="Path 14" class="cls-2" d="M0,0V-59.9H25.715v9.031H9.03v16.421H21.215v9.033H9.03V-9.031H25.715V0Z"/>
      </g>
      <g id="Group_13" data-name="Group 13" transform="translate(188.024 -20.259)">
        <path id="Path_15" data-name="Path 15" class="cls-2" d="M0,0A16.8,16.8,0,0,1-3.252,10.706,11.548,11.548,0,0,1-9.46,14.944a16.61,16.61,0,0,1-5.025.69,14.192,14.192,0,0,1-8.8-2.628,15.04,15.04,0,0,1-4.6-5.861,23.2,23.2,0,0,1-1.97-8.524l8.572-.592q.591,5.223,2.792,7.555a4.571,4.571,0,0,0,3.712,1.674,5.624,5.624,0,0,0,4.728-2.889A7.259,7.259,0,0,0-9.13.4q0-3.778-3.383-7.457-2.7-2.528-8.047-7.586A33.187,33.187,0,0,1-26.9-22.431a18.058,18.058,0,0,1-2-8.408q0-8.177,5.485-12.382a13.658,13.658,0,0,1,8.406-2.528,15.233,15.233,0,0,1,8.277,2.168,12.427,12.427,0,0,1,4.3,4.679,17.654,17.654,0,0,1,2,6.915L-9.1-30.411a10.126,10.126,0,0,0-2.1-5.715,4.379,4.379,0,0,0-3.579-1.511,4.16,4.16,0,0,0-3.777,2.2,8.5,8.5,0,0,0-1.05,4.4q0,4.107,3.546,8.376a31.6,31.6,0,0,0,4.006,3.808q3.154,2.628,4.171,3.679a31.86,31.86,0,0,1,5.157,6.6A23.589,23.589,0,0,1-1.347-5.747,16.785,16.785,0,0,1,0,0"/>
      </g>
      <g id="Group_14" data-name="Group 14" transform="translate(260.198 -18.718)">
        <path id="Path_16" data-name="Path 16" class="cls-2" d="M0,0A3.52,3.52,0,0,1-1.463,2.834L-13.954-18.8-6.7-24.934-5.468-22.8A40.965,40.965,0,0,1,.007-2.165ZM-36.973-1.619l-2.4,1.87A.018.018,0,0,0-39.4.262l-2.039,1.589a27.163,27.163,0,0,1-3.574,2.37,28.52,28.52,0,0,1-2.666,1.328.482.482,0,0,0-.076.036,2.353,2.353,0,0,1-2.534-.557,2.355,2.355,0,0,1-.476-2.55A28.5,28.5,0,0,1-49.422-.21,26.5,26.5,0,0,1-47.047-3.8l1.576-2.026a.02.02,0,0,1,.01-.017l1.887-2.43,31.246-35.718A15.189,15.189,0,0,1-1.2-48.854,15.075,15.075,0,0,1,.965-48.7l1.339.188a1.181,1.181,0,0,1,1,.99l.19,1.35A15.173,15.173,0,0,1-1.217-32.9Zm.493,14.909.008,1.727a1.189,1.189,0,0,1-.438.922L-42.842,5.656c.228-.136.441-.285.66-.427.176-.115.353-.224.522-.339.567-.38,1.118-.771,1.637-1.18l.034-.026.96-.746A22.279,22.279,0,0,1-36.48,13.29M-60.245-8.738l1.753.007A22.249,22.249,0,0,1-48.148-6.18l-.735.946c-.425.537-.826,1.1-1.219,1.684-.118.169-.221.34-.334.511-.143.225-.294.439-.433.669L-61.153-8.3a1.178,1.178,0,0,1,.908-.434m15.037-36.474,2.168-.009a41.232,41.232,0,0,1,20.63,5.483l2.13,1.224-6.137,7.256L-48.046-43.749a3.524,3.524,0,0,1,2.838-1.463M-4.9-26.489.349-31.154l.019-.017A17.511,17.511,0,0,0,5.8-46.5l-.191-1.353A3.53,3.53,0,0,0,2.64-50.823L1.3-51.014A17.532,17.532,0,0,0-14.06-45.559l-4.663,5.245-2.521-1.451a43.721,43.721,0,0,0-21.8-5.791l-2.171.008a5.859,5.859,0,0,0-5.04,2.922l-.409.71a1.168,1.168,0,0,0,.427,1.594l22.261,12.853L-45.373-9.759l-1.332,1.713a24.591,24.591,0,0,0-11.787-3.02l-1.759-.01a3.556,3.556,0,0,0-3.025,1.753l-.5.851a1.161,1.161,0,0,0-.119.887,1.183,1.183,0,0,0,.545.711L-52.011-.33c-.321.621-.626,1.242-.9,1.884a4.7,4.7,0,0,0,.4,4.405,4.7,4.7,0,0,0,3.88,2.127,4.729,4.729,0,0,0,1.87-.39.652.652,0,0,0,.089-.04c.583-.252,1.185-.545,1.795-.862l6.544,11.334a1.178,1.178,0,0,0,.71.55,1.174,1.174,0,0,0,.889-.115l.86-.5h.007a3.57,3.57,0,0,0,1.743-3.037l-.008-1.737A24.583,24.583,0,0,0-37.169,1.5l1.69-1.312,19.724-17.42L-2.895,5.029a1.171,1.171,0,0,0,1.6.429l.709-.407A5.864,5.864,0,0,0,2.332.006L2.339-2.16A43.3,43.3,0,0,0-3.45-23.965Z"/>
      </g>
      <g id="Group_15" data-name="Group 15" transform="translate(252.709 -61.24)">
        <path id="Path_17" data-name="Path 17" class="cls-2" d="M0,0A3.5,3.5,0,0,1,4.8,4.8,1.169,1.169,0,0,0,6.81,6a5.843,5.843,0,0,0-8-8.01,1.172,1.172,0,0,0-.583,1.02,1.172,1.172,0,0,0,.6,1.013A1.176,1.176,0,0,0,0,0"/>
      </g>
    </g>
  </g>
</svg>
